<svg width="167" height="163" viewBox="0 0 167 163" fill="none" xmlns="http://www.w3.org/2000/svg">
<path d="M0.1 0.549998H5.05V5.5H0.1V0.549998ZM6.35 0.549998H11.3V5.5H6.35V0.549998ZM12.6 0.549998H17.55V5.5H12.6V0.549998ZM18.85 0.549998H23.8V5.5H18.85V0.549998ZM0.1 6.8H5.05V11.75H0.1V6.8ZM25.1 6.8H30.05V11.75H25.1V6.8ZM0.1 13.05H5.05V18H0.1V13.05ZM25.1 13.05H30.05V18H25.1V13.05ZM0.1 19.3H5.05V24.25H0.1V19.3ZM6.35 19.3H11.3V24.25H6.35V19.3ZM12.6 19.3H17.55V24.25H12.6V19.3ZM18.85 19.3H23.8V24.25H18.85V19.3ZM0.1 25.55H5.05V30.5H0.1V25.55ZM12.6 25.55H17.55V30.5H12.6V25.55ZM0.1 31.8H5.05V36.75H0.1V31.8ZM18.85 31.8H23.8V36.75H18.85V31.8ZM0.1 38.05H5.05V43H0.1V38.05ZM25.1 38.05H30.05V43H25.1V38.05ZM42.434 6.8H47.384V11.75H42.434V6.8ZM48.684 6.8H53.634V11.75H48.684V6.8ZM54.934 13.05H59.884V18H54.934V13.05ZM54.934 19.3H59.884V24.25H54.934V19.3ZM36.184 25.55H41.134V30.5H36.184V25.55ZM36.184 13.05H41.134V18H36.184V13.05ZM42.434 25.55H47.384V30.5H42.434V25.55ZM48.684 25.55H53.634V30.5H48.684V25.55ZM42.434 38.05H47.384V43H42.434V38.05ZM48.684 38.05H53.634V43H48.684V38.05ZM36.184 31.8H41.134V36.75H36.184V31.8ZM36.184 19.3H41.134V24.25H36.184V19.3ZM54.934 25.55H59.884V30.5H54.934V25.55ZM72.3168 6.8H77.2668V11.75H72.3168V6.8ZM78.5668 6.8H83.5168V11.75H78.5668V6.8ZM84.8168 13.05H89.7668V18H84.8168V13.05ZM84.8168 19.3H89.7668V24.25H84.8168V19.3ZM66.0668 25.55H71.0168V30.5H66.0668V25.55ZM84.8168 25.55H89.7668V30.5H84.8168V25.55ZM72.3168 19.3H77.2668V24.25H72.3168V19.3ZM78.5668 19.3H83.5168V24.25H78.5668V19.3ZM72.3168 38.05H77.2668V43H72.3168V38.05ZM78.5668 38.05H83.5168V43H78.5668V38.05ZM66.0668 31.8H71.0168V36.75H66.0668V31.8ZM84.8168 31.8H89.7668V36.75H84.8168V31.8ZM102.2 6.8H107.15V11.75H102.2V6.8ZM108.45 6.8H113.4V11.75H108.45V6.8ZM114.7 13.05H119.65V18H114.7V13.05ZM95.9496 13.05H100.9V18H95.9496V13.05ZM95.9496 19.3H100.9V24.25H95.9496V19.3ZM95.9496 25.55H100.9V30.5H95.9496V25.55ZM95.9496 31.8H100.9V36.75H95.9496V31.8ZM102.2 38.05H107.15V43H102.2V38.05ZM108.45 38.05H113.4V43H108.45V38.05ZM114.7 31.8H119.65V36.75H114.7V31.8ZM132.082 43V38.05H137.032V43H132.082ZM138.332 43V38.05H143.282V43H138.332ZM125.832 36.75V31.8H130.782V36.75H125.832ZM125.832 30.5V25.55H130.782V30.5H125.832ZM125.832 24.25V19.3H130.782V24.25H125.832ZM132.082 18V13.05H137.032V18H132.082ZM125.832 18V13.05H130.782V18H125.832ZM125.832 11.75V6.8H130.782V11.75H125.832ZM138.332 18V13.05H143.282V18H138.332ZM6.35 60.55H11.3V65.5H6.35V60.55ZM12.6 60.55H17.55V65.5H12.6V60.55ZM18.85 60.55H23.8V65.5H18.85V60.55ZM0.1 66.8H5.05V71.75H0.1V66.8ZM25.1 66.8H30.05V71.75H25.1V66.8ZM0.1 73.05H5.05V78H0.1V73.05ZM6.35 79.3H11.3V84.25H6.35V79.3ZM12.6 79.3H17.55V84.25H12.6V79.3ZM18.85 79.3H23.8V84.25H18.85V79.3ZM25.1 85.55H30.05V90.5H25.1V85.55ZM0.1 91.8H5.05V96.75H0.1V91.8ZM25.1 91.8H30.05V96.75H25.1V91.8ZM6.35 98.05H11.3V103H6.35V98.05ZM12.6 98.05H17.55V103H12.6V98.05ZM18.85 98.05H23.8V103H18.85V98.05ZM42.434 66.8H47.384V71.75H42.434V66.8ZM54.934 66.8H59.884V71.75H54.934V66.8ZM36.184 73.05H41.134V78H36.184V73.05ZM48.684 73.05H53.634V78H48.684V73.05ZM61.184 73.05H66.134V78H61.184V73.05ZM36.184 85.55H41.134V90.5H36.184V85.55ZM48.684 85.55H53.634V90.5H48.684V85.55ZM61.184 85.55H66.134V90.5H61.184V85.55ZM36.184 91.8H41.134V96.75H36.184V91.8ZM48.684 91.8H53.634V96.75H48.684V91.8ZM61.184 91.8H66.134V96.75H61.184V91.8ZM36.184 98.05H41.134V103H36.184V98.05ZM48.684 98.05H53.634V103H48.684V98.05ZM61.184 98.05H66.134V103H61.184V98.05ZM36.184 79.3H41.134V84.25H36.184V79.3ZM48.684 79.3H53.634V84.25H48.684V79.3ZM61.184 79.3H66.134V84.25H61.184V79.3ZM78.5668 66.8H83.5168V71.75H78.5668V66.8ZM84.8168 66.8H89.7668V71.75H84.8168V66.8ZM91.0668 73.05H96.0168V78H91.0668V73.05ZM91.0668 79.3H96.0168V84.25H91.0668V79.3ZM72.3168 85.55H77.2668V90.5H72.3168V85.55ZM91.0668 85.55H96.0168V90.5H91.0668V85.55ZM78.5668 79.3H83.5168V84.25H78.5668V79.3ZM84.8168 79.3H89.7668V84.25H84.8168V79.3ZM78.5668 98.05H83.5168V103H78.5668V98.05ZM84.8168 98.05H89.7668V103H84.8168V98.05ZM72.3168 91.8H77.2668V96.75H72.3168V91.8ZM91.0668 91.8H96.0168V96.75H91.0668V91.8ZM108.45 66.8H113.4V71.75H108.45V66.8ZM114.7 66.8H119.65V71.75H114.7V66.8ZM102.2 73.05H107.15V78H102.2V73.05ZM102.2 79.3H107.15V84.25H102.2V79.3ZM102.2 85.55H107.15V90.5H102.2V85.55ZM102.2 91.8H107.15V96.75H102.2V91.8ZM102.2 98.05H107.15V103H102.2V98.05ZM132.082 103V98.05H137.032V103H132.082ZM138.332 103V98.05H143.282V103H138.332ZM125.832 96.75V91.8H130.782V96.75H125.832ZM125.832 90.5V85.55H130.782V90.5H125.832ZM125.832 84.25V79.3H130.782V84.25H125.832ZM132.082 78V73.05H137.032V78H132.082ZM125.832 78V73.05H130.782V78H125.832ZM125.832 71.75V66.8H130.782V71.75H125.832ZM138.332 78V73.05H143.282V78H138.332ZM0.1 120.55H5.05V125.5H0.1V120.55ZM6.35 120.55H11.3V125.5H6.35V120.55ZM12.6 120.55H17.55V125.5H12.6V120.55ZM18.85 120.55H23.8V125.5H18.85V120.55ZM25.1 120.55H30.05V125.5H25.1V120.55ZM12.6 126.8H17.55V131.75H12.6V126.8ZM12.6 133.05H17.55V138H12.6V133.05ZM12.6 139.3H17.55V144.25H12.6V139.3ZM12.6 145.55H17.55V150.5H12.6V145.55ZM12.6 151.8H17.55V156.75H12.6V151.8ZM12.6 158.05H17.55V163H12.6V158.05ZM36.2328 133.05H41.1828V138H36.2328V133.05ZM42.4828 120.55H47.4328V125.5H42.4828V120.55ZM42.4828 133.05H47.4328V138H42.4828V133.05ZM42.4828 139.3H47.4328V144.25H42.4828V139.3ZM42.4828 145.55H47.4328V150.5H42.4828V145.55ZM42.4828 151.8H47.4328V156.75H42.4828V151.8ZM48.7328 158.05H53.6828V163H48.7328V158.05ZM66.1156 126.8H71.0656V131.75H66.1156V126.8ZM72.3656 126.8H77.3156V131.75H72.3656V126.8ZM78.6156 133.05H83.5656V138H78.6156V133.05ZM59.8656 133.05H64.8156V138H59.8656V133.05ZM59.8656 139.3H64.8156V144.25H59.8656V139.3ZM59.8656 145.55H64.8156V150.5H59.8656V145.55ZM59.8656 151.8H64.8156V156.75H59.8656V151.8ZM66.1156 158.05H71.0656V163H66.1156V158.05ZM72.3656 158.05H77.3156V163H72.3656V158.05ZM78.6156 151.8H83.5656V156.75H78.6156V151.8ZM89.7484 120.55H94.6984V125.5H89.7484V120.55ZM89.7484 126.8H94.6984V131.75H89.7484V126.8ZM108.498 133.05H113.448V138H108.498V133.05ZM89.7484 133.05H94.6984V138H89.7484V133.05ZM102.248 139.3H107.198V144.25H102.248V139.3ZM89.7484 139.3H94.6984V144.25H89.7484V139.3ZM95.9984 145.55H100.948V150.5H95.9984V145.55ZM89.7484 145.55H94.6984V150.5H89.7484V145.55ZM102.248 151.8H107.198V156.75H102.248V151.8ZM89.7484 151.8H94.6984V156.75H89.7484V151.8ZM108.498 158.05H113.448V163H108.498V158.05ZM89.7484 158.05H94.6984V163H89.7484V158.05ZM125.881 126.8H130.831V131.75H125.881V126.8ZM132.131 126.8H137.081V131.75H132.131V126.8ZM138.381 133.05H143.331V138H138.381V133.05ZM138.381 139.3H143.331V144.25H138.381V139.3ZM119.631 145.55H124.581V150.5H119.631V145.55ZM119.631 133.05H124.581V138H119.631V133.05ZM125.881 145.55H130.831V150.5H125.881V145.55ZM132.131 145.55H137.081V150.5H132.131V145.55ZM125.881 158.05H130.831V163H125.881V158.05ZM132.131 158.05H137.081V163H132.131V158.05ZM119.631 151.8H124.581V156.75H119.631V151.8ZM119.631 139.3H124.581V144.25H119.631V139.3ZM138.381 145.55H143.331V150.5H138.381V145.55ZM155.764 126.8H160.714V131.75H155.764V126.8ZM162.014 126.8H166.964V131.75H162.014V126.8ZM149.514 133.05H154.464V138H149.514V133.05ZM149.514 139.3H154.464V144.25H149.514V139.3ZM149.514 145.55H154.464V150.5H149.514V145.55ZM149.514 151.8H154.464V156.75H149.514V151.8ZM149.514 158.05H154.464V163H149.514V158.05Z" fill="url(#paint0_linear_1_19)"/>
<defs>
<linearGradient id="paint0_linear_1_19" x1="3.88398" y1="15" x2="137.108" y2="81.2922" gradientUnits="userSpaceOnUse">
<stop stop-color="#77D4E8"/>
<stop offset="1" stop-color="#44826D"/>
</linearGradient>
</defs>
</svg>
